Coordinates
version=1
nRows=12
nColumns=24
inDegrees=yes

Units are S.I. units (second, meters, Newtons, ...)
If the header above contains a line with 'inDegrees', this indicates whether rotational values are in degrees (yes) or radians (no).

endheader
time	pelvis_tilt	pelvis_list	pelvis_rotation	pelvis_tx	pelvis_ty	pelvis_tz	hip_flexion_r	hip_adduction_r	hip_rotation_r	knee_angle_r	ankle_angle_r	subtalar_angle_r	mtp_angle_r	hip_flexion_l	hip_adduction_l	hip_rotation_l	knee_angle_l	ankle_angle_l	subtalar_angle_l	mtp_angle_l	lumbar_extension	lumbar_bending	lumbar_rotation
      0.00000000	    -61.80966771	     -2.39233532	     -1.20604606	      0.70386579	      0.54142843	      0.00411669	     52.61482047	      7.55142025	     -7.99351236	    -61.11095698	     35.20268366	     10.86496377	      0.00000000	     95.44038024	     -4.43255231	     -8.26240512	    -97.33206240	     30.56044540	      7.09124977	      0.00000000	    -55.45041056	     -0.84590886	     -7.94277693
      0.01666700	    -59.81157336	     -3.67805261	     -1.38466330	      0.72027056	      0.54539398	      0.00401714	     49.30203164	      8.20047209	     -8.88696502	    -59.51520526	     32.81380705	     11.57399422	      0.00000000	     92.28641106	     -5.18722326	     -7.50576060	    -97.07793759	     30.74477589	      6.72300702	      0.00000000	    -54.71100951	     -0.54271712	     -8.86190831
      0.03333300	    -57.17103887	     -4.98690534	     -1.05034584	      0.74171437	      0.54935308	      0.00270326	     45.44385851	      8.63522478	     -9.73959238	    -58.31622214	     29.19322122	     12.64332196	      0.00000000	     88.46253910	     -5.27302721	     -6.19227133	    -97.11883762	     30.57437086	      6.85928018	      0.00000000	    -54.07065821	      0.12470241	     -9.42658681
      0.05000000	    -54.74622190	     -5.81547117	     -0.53705585	      0.76697352	      0.55300423	      0.00294164	     42.33319568	      9.11513310	     -9.67880830	    -57.91384322	     24.34593390	     12.94892198	      0.00000000	     84.12561574	     -5.21794444	     -5.26935509	    -96.57600962	     30.61202896	      6.62520017	      0.00000000	    -53.03002741	      0.21351972	     -9.68266961
      0.06666700	    -52.64557590	     -6.30154115	      0.57091475	      0.79637721	      0.55665431	      0.00422489	     39.96452515	      9.50242322	     -8.77363300	    -57.92819351	     16.71430317	     13.66238636	      0.00000000	     79.31083496	     -4.58754706	     -4.25023912	    -95.25115716	     31.17420725	      6.87642914	      0.00000000	    -51.47977187	     -0.05046289	     -8.50456271
      0.08333300	    -50.41715856	     -6.37001131	      1.35228729	      0.83058148	      0.56087583	      0.00575028	     37.85575058	      9.92230388	     -7.09841305	    -58.48986018	      6.87447096	     14.98707397	      0.00000000	     73.50107807	     -4.17372200	     -3.58977030	    -93.14262421	     32.12909820	      7.11095817	      0.00000000	    -49.89295632	     -1.02997425	     -6.57077265
      0.10000000	    -48.20130501	     -6.11174395	      2.83794580	      0.86481543	      0.56521283	      0.00507188	     37.01602279	      9.58715068	     -5.95590770	    -61.16924558	     -1.38681106	     15.63874753	      0.00000000	     67.77088638	     -3.09050003	     -3.02736576	    -90.77105204	     32.30511237	      7.33730441	      0.00000000	    -48.45879354	     -1.31701236	     -5.77688604
      0.11666700	    -45.72773122	     -6.52333997	      4.57081551	      0.89900936	      0.56859641	      0.00409968	     37.10163470	     10.25002297	     -5.12133464	    -65.54392161	     -8.28289887	     14.13337645	      0.00000000	     62.12598050	     -2.89031889	     -2.21500538	    -88.64762850	     32.31720960	      8.17249757	      0.00000000	    -47.25367900	     -0.49064230	     -5.81337146
      0.13333300	    -42.96173154	     -6.58858269	      6.23026359	      0.93326119	      0.57354395	      0.00183984	     38.03049950	     10.59268064	     -4.20391301	    -72.21584827	    -12.21636360	     15.36468056	      0.00000000	     56.07222680	     -2.92887015	     -1.76426631	    -86.05294315	     31.85877810	      8.96440040	      0.00000000	    -46.38095520	      0.54627241	     -6.11007588
      0.15000000	    -40.53764425	     -6.56198269	      7.52102696	      0.96901069	      0.57864804	     -0.00102560	     40.19119104	     10.72528481	     -3.63140281	    -80.17514404	    -13.36712188	     16.34022834	      0.00000000	     50.06150635	     -3.63726889	     -1.91998133	    -82.86364518	     30.73541222	     10.51781206	      0.00000000	    -45.46259344	      1.58102932	     -7.06657555
      0.16666700	    -37.75690394	     -6.84078804	      8.60882237	      1.00630339	      0.58405496	     -0.00421054	     43.06477622	     10.71274058	     -4.03673799	    -89.64668182	    -10.42601448	     15.11526045	      0.00000000	     43.75349782	     -5.43894312	     -2.41223898	    -79.70019108	     29.62603841	     12.90190220	      0.00000000	    -44.91413052	      3.18328120	     -8.33135852
      0.18333300	    -34.79447339	     -7.02507629	      8.78261653	      1.04565299	      0.59022812	     -0.00539246	     46.59099787	     11.09256833	     -4.05366285	    -99.79378350	     -5.37911328	     12.01375755	      0.00000000	     36.82535269	     -8.34083199	     -4.22266080	    -75.94019775	     27.61309965	     16.20817914	      0.00000000	    -44.78524908	      4.42853074	     -9.22296977
